<svg id="visual" viewBox="0 0 900 600" width="900" height="600" xmlns="http://www.w3.org/2000/svg"
    xmlns:xlink="http://www.w3.org/1999/xlink" version="1.1">
    <path
        d="M0 374L25 379.5C50 385 100 396 150 392.2C200 388.3 250 369.7 300 352.8C350 336 400 321 450 317.5C500 314 550 322 600 322C650 322 700 314 750 309C800 304 850 302 875 301L900 300L900 601L875 601C850 601 800 601 750 601C700 601 650 601 600 601C550 601 500 601 450 601C400 601 350 601 300 601C250 601 200 601 150 601C100 601 50 601 25 601L0 601Z"
        fill="#f2f2f2"></path>
    <path
        d="M0 447L25 438.2C50 429.3 100 411.7 150 410C200 408.3 250 422.7 300 419.7C350 416.7 400 396.3 450 386.8C500 377.3 550 378.7 600 391.8C650 405 700 430 750 425.7C800 421.3 850 387.7 875 370.8L900 354L900 601L875 601C850 601 800 601 750 601C700 601 650 601 600 601C550 601 500 601 450 601C400 601 350 601 300 601C250 601 200 601 150 601C100 601 50 601 25 601L0 601Z"
        fill="#e5e7eb"></path>
    <path
        d="M0 445L25 442.3C50 439.7 100 434.3 150 434.7C200 435 250 441 300 436.8C350 432.7 400 418.3 450 421.3C500 424.3 550 444.7 600 444.7C650 444.7 700 424.3 750 424.3C800 424.3 850 444.7 875 454.8L900 465L900 601L875 601C850 601 800 601 750 601C700 601 650 601 600 601C550 601 500 601 450 601C400 601 350 601 300 601C250 601 200 601 150 601C100 601 50 601 25 601L0 601Z"
        fill="#d8dce5"></path>
    <path
        d="M0 476L25 482.3C50 488.7 100 501.3 150 499.8C200 498.3 250 482.7 300 476.8C350 471 400 475 450 473.7C500 472.3 550 465.7 600 472.3C650 479 700 499 750 499.8C800 500.7 850 482.3 875 473.2L900 464L900 601L875 601C850 601 800 601 750 601C700 601 650 601 600 601C550 601 500 601 450 601C400 601 350 601 300 601C250 601 200 601 150 601C100 601 50 601 25 601L0 601Z"
        fill="#cbd1df"></path>
    <path
        d="M0 521L25 525.3C50 529.7 100 538.3 150 545.3C200 552.3 250 557.7 300 560.5C350 563.3 400 563.7 450 555.3C500 547 550 530 600 528.2C650 526.3 700 539.7 750 539.7C800 539.7 850 526.3 875 519.7L900 513L900 601L875 601C850 601 800 601 750 601C700 601 650 601 600 601C550 601 500 601 450 601C400 601 350 601 300 601C250 601 200 601 150 601C100 601 50 601 25 601L0 601Z"
        fill="#bfc7d9"></path>
</svg>