<svg id="visual" viewBox="0 0 900 600" width="900" height="600" xmlns="http://www.w3.org/2000/svg"
    xmlns:xlink="http://www.w3.org/1999/xlink" version="1.1">
    <path transform="matrix(4.5,0,0,1,-1601.9,0)"
        d="M -294.8 277 L -269.8 277 C -244.8 277 -194.8 277 -144.8 279 C -94.8 281 -44.8 285 5.2 286.7 C 55.2 288.3 105.2 287.7 155.2 287.3 C 205.2 287 255.2 287 305.2 285 C 355.2 283 405.2 279 455.2 284.2 C 505.2 289.3 555.2 303.7 580.2 310.8 L 605.2 318 L 605.2 -18 L 580.2 -18 C 555.2 -18 505.2 -18 455.2 -18 C 405.2 -18 355.2 -18 305.2 -18 C 255.2 -18 205.2 -18 155.2 -18 C 105.2 -18 55.2 -18 5.2 -18 C -44.8 -18 -94.8 -18 -144.8 -18 C -194.8 -18 -244.8 -18 -269.8 -18 L -294.8 -18 Z"
        fill="#bfc7d9"></path>
    <path transform="matrix(4.5,0,0,1,-1601.9,0)"
        d="M -294.8 204 L -269.8 204.2 C -244.8 204.3 -194.8 204.7 -144.8 211.3 C -94.8 218 -44.8 231 5.2 237.3 C 55.2 243.7 105.2 243.3 155.2 245.3 C 205.2 247.3 255.2 251.7 305.2 246.8 C 355.2 242 405.2 228 455.2 227.7 C 505.2 227.3 555.2 240.7 580.2 247.3 L 605.2 254 L 605.2 -18 L 580.2 -18 C 555.2 -18 505.2 -18 455.2 -18 C 405.2 -18 355.2 -18 305.2 -18 C 255.2 -18 205.2 -18 155.2 -18 C 105.2 -18 55.2 -18 5.2 -18 C -44.8 -18 -94.8 -18 -144.8 -18 C -194.8 -18 -244.8 -18 -269.8 -18 L -294.8 -18 Z"
        fill="#cbd1df"></path>
    <path transform="matrix(4.5,0,0,1,-1601.9,0)"
        d="M -294.8 156 L -269.8 162.3 C -244.8 168.7 -194.8 181.3 -144.8 182 C -94.8 182.7 -44.8 171.3 5.2 163.5 C 55.2 155.7 105.2 151.3 155.2 151.2 C 205.2 151 255.2 155 305.2 160.8 C 355.2 166.7 405.2 174.3 455.2 174.8 C 505.2 175.3 555.2 168.7 580.2 165.3 L 605.2 162 L 605.2 -18 L 580.2 -18 C 555.2 -18 505.2 -18 455.2 -18 C 405.2 -18 355.2 -18 305.2 -18 C 255.2 -18 205.2 -18 155.2 -18 C 105.2 -18 55.2 -18 5.2 -18 C -44.8 -18 -94.8 -18 -144.8 -18 C -194.8 -18 -244.8 -18 -269.8 -18 L -294.8 -18 Z"
        fill="#d8dce5"></path>
    <path transform="matrix(4.5,0,0,1,-1601.9,0)"
        d="M -294.8 128 L -269.8 125.2 C -244.8 122.3 -194.8 116.7 -144.8 112.2 C -94.8 107.7 -44.8 104.3 5.2 107.7 C 55.2 111 105.2 121 155.2 120.2 C 205.2 119.3 255.2 107.7 305.2 101.8 C 355.2 96 405.2 96 455.2 101 C 505.2 106 555.2 116 580.2 121 L 605.2 126 L 605.2 -18 L 580.2 -18 C 555.2 -18 505.2 -18 455.2 -18 C 405.2 -18 355.2 -18 305.2 -18 C 255.2 -18 205.2 -18 155.2 -18 C 105.2 -18 55.2 -18 5.2 -18 C -44.8 -18 -94.8 -18 -144.8 -18 C -194.8 -18 -244.8 -18 -269.8 -18 L -294.8 -18 Z"
        fill="#e5e7eb"></path>
    <path transform="matrix(4.5,0,0,1,-1601.9,0)"
        d="M -294.8 50 L -269.8 53.5 C -244.8 57 -194.8 64 -144.8 67.5 C -94.8 71 -44.8 71 5.2 65.2 C 55.2 59.3 105.2 47.7 155.2 44.8 C 205.2 42 255.2 48 305.2 51.2 C 355.2 54.3 405.2 54.7 455.2 50.7 C 505.2 46.7 555.2 38.3 580.2 34.2 L 605.2 30 L 605.2 -18 L 580.2 -18 C 555.2 -18 505.2 -18 455.2 -18 C 405.2 -18 355.2 -18 305.2 -18 C 255.2 -18 205.2 -18 155.2 -18 C 105.2 -18 55.2 -18 5.2 -18 C -44.8 -18 -94.8 -18 -144.8 -18 C -194.8 -18 -244.8 -18 -269.8 -18 L -294.8 -18 Z"
        fill="#f2f2f2"></path>
</svg>