<svg id="visual" viewBox="0 0 900 600" width="900" height="600" xmlns="http://www.w3.org/2000/svg"
    xmlns:xlink="http://www.w3.org/1999/xlink" version="1.1">
    <path transform="matrix(3.6,0,0,1,-754,0)"
        d="M -433.7 301 L -408.7 308.3 C -383.7 315.7 -333.7 330.3 -283.7 337.7 C -233.7 345 -183.7 345 -133.7 340.8 C -83.7 336.7 -33.7 328.3 16.3 329.3 C 66.3 330.3 116.3 340.7 166.3 344 C 216.3 347.3 266.3 343.7 316.3 341.2 C 366.3 338.7 416.3 337.3 441.3 336.7 L 466.3 336 L 466.3 639 L 441.3 639 C 416.3 639 366.3 639 316.3 639 C 266.3 639 216.3 639 166.3 639 C 116.3 639 66.3 639 16.3 639 C -33.7 639 -83.7 639 -133.7 639 C -183.7 639 -233.7 639 -283.7 639 C -333.7 639 -383.7 639 -408.7 639 L -433.7 639 Z"
        fill="#bfc7d9"></path>
    <path transform="matrix(3.6,0,0,1,-754,0)"
        d="M -433.7 398 L -408.7 395.8 C -383.7 393.7 -333.7 389.3 -283.7 384.7 C -233.7 380 -183.7 375 -133.7 379.5 C -83.7 384 -33.7 398 16.3 396.7 C 66.3 395.3 116.3 378.7 166.3 372.2 C 216.3 365.7 266.3 369.3 316.3 376.8 C 366.3 384.3 416.3 395.7 441.3 401.3 L 466.3 407 L 466.3 639 L 441.3 639 C 416.3 639 366.3 639 316.3 639 C 266.3 639 216.3 639 166.3 639 C 116.3 639 66.3 639 16.3 639 C -33.7 639 -83.7 639 -133.7 639 C -183.7 639 -233.7 639 -283.7 639 C -333.7 639 -383.7 639 -408.7 639 L -433.7 639 Z"
        fill="#cbd1df"></path>
    <path transform="matrix(3.6,0,0,1,-754,0)"
        d="M -433.7 469 L -408.7 464.5 C -383.7 460 -333.7 451 -283.7 447.7 C -233.7 444.3 -183.7 446.7 -133.7 449.8 C -83.7 453 -33.7 457 16.3 453 C 66.3 449 116.3 437 166.3 431.3 C 216.3 425.7 266.3 426.3 316.3 431.7 C 366.3 437 416.3 447 441.3 452 L 466.3 457 L 466.3 639 L 441.3 639 C 416.3 639 366.3 639 316.3 639 C 266.3 639 216.3 639 166.3 639 C 116.3 639 66.3 639 16.3 639 C -33.7 639 -83.7 639 -133.7 639 C -183.7 639 -233.7 639 -283.7 639 C -333.7 639 -383.7 639 -408.7 639 L -433.7 639 Z"
        fill="#d8dce5"></path>
    <path transform="matrix(3.6,0,0,1,-754,0)"
        d="M -433.7 494 L -408.7 498.2 C -383.7 502.3 -333.7 510.7 -283.7 512.3 C -233.7 514 -183.7 509 -133.7 509.3 C -83.7 509.7 -33.7 515.3 16.3 513.8 C 66.3 512.3 116.3 503.7 166.3 500.8 C 216.3 498 266.3 501 316.3 503.5 C 366.3 506 416.3 508 441.3 509 L 466.3 510 L 466.3 639 L 441.3 639 C 416.3 639 366.3 639 316.3 639 C 266.3 639 216.3 639 166.3 639 C 116.3 639 66.3 639 16.3 639 C -33.7 639 -83.7 639 -133.7 639 C -183.7 639 -233.7 639 -283.7 639 C -333.7 639 -383.7 639 -408.7 639 L -433.7 639 Z"
        fill="#e5e7eb"></path>
    <path transform="matrix(3.6,0,0,1,-754,0)"
        d="M -433.7 572 L -408.7 567.7 C -383.7 563.3 -333.7 554.7 -283.7 556.8 C -233.7 559 -183.7 572 -133.7 578.2 C -83.7 584.3 -33.7 583.7 16.3 579.7 C 66.3 575.7 116.3 568.3 166.3 567.2 C 216.3 566 266.3 571 316.3 572.7 C 366.3 574.3 416.3 572.7 441.3 571.8 L 466.3 571 L 466.3 639 L 441.3 639 C 416.3 639 366.3 639 316.3 639 C 266.3 639 216.3 639 166.3 639 C 116.3 639 66.3 639 16.3 639 C -33.7 639 -83.7 639 -133.7 639 C -183.7 639 -233.7 639 -283.7 639 C -333.7 639 -383.7 639 -408.7 639 L -433.7 639 Z"
        fill="#f2f2f2"></path>
</svg>