<svg id="visual" viewBox="0 0 900 600" width="900" height="600" xmlns="http://www.w3.org/2000/svg"
    xmlns:xlink="http://www.w3.org/1999/xlink" version="1.1">
    <path transform="matrix(-1.9,0,0,-1,1412.3,1841.3)" d="M 172.5 1076.4 L 397.5 897 L 622.5 1133.6 L 847.5 1014.2 L 1072.5 1049.9 L 1072.5 1903 L 847.5 1903 L 622.5 1903 L 397.5 1903 L 172.5 1903 Z" fill="#e5e7eb"></path>
    <path transform="matrix(-1.9,0,0,-1,1345.4,1841.3)" d="M 113.3 1403.3 L 467.8 1342 L 822.3 1501 L 1176.8 1373.5 L 1531.3 1361.9 L 1531.3 1862 L 1176.8 1862 L 822.3 1862 L 467.8 1862 L 113.3 1862 Z" fill="#d8dce5"></path>
    <path transform="matrix(-1.9,0,0,-1,1402.9,1841.3)" d="M 109.6 1531.8 L 334.6 1526.4 L 559.6 1562.8 L 784.6 1488.1 L 1009.6 1428 L 1009.6 1847 L 784.6 1847 L 559.6 1847 L 334.6 1847 L 109.6 1847 Z" fill="#cbd1df"></path>
    <path transform="matrix(-1.9,0,0,-1,1407.2,1841.3)" d="M -705.7 1575 L -342.8 1795.8 L 20.1 1795.8 L 382.9 1590.9 L 745.8 1738.1 L 745.8 2010 L 382.9 2010 L 20.1 2010 L -342.8 2010 L -705.7 2010 Z" fill="#bfc7d9"></path>
</svg>