<svg xmlns="http://www.w3.org/2000/svg" width="800" height="800" viewBox="0 0 800 800">

    <g transform="matrix(1,0,0,1,-6.1,-2.5)">
        <path transform="matrix(1.9,0,0,3.3,-257.2,-817.9)"
            d="M -210.5 389.8 L -189 390.6 C -167.5 391.5 -124.5 393.1 -81.7 392.3 C -38.8 391.5 3.8 388.1 46.7 392 C 89.5 395.8 132.5 406.8 175.3 405.5 C 218.2 404.1 260.8 390.5 303.7 390 C 346.5 389.5 389.5 402.1 432.3 402.6 C 475.2 403.1 517.8 391.5 560.7 388.1 C 603.5 384.8 646.5 389.8 668 392.3 L 689.5 394.8 L 689.5 553.8 L 668 553.8 C 646.5 553.8 603.5 553.8 560.7 553.8 C 517.8 553.8 475.2 553.8 432.3 553.8 C 389.5 553.8 346.5 553.8 303.7 553.8 C 260.8 553.8 218.2 553.8 175.3 553.8 C 132.5 553.8 89.5 553.8 46.7 553.8 C 3.8 553.8 -38.8 553.8 -81.7 553.8 C -124.5 553.8 -167.5 553.8 -189 553.8 L -210.5 553.8 Z"
            fill="#e5e7eb"></path>
        <path transform="matrix(1.9,0,0,3.3,-257.2,-851.3)"
            d="M -203.2 411.9 L -181.7 414.6 C -160.2 417.2 -117.2 422.6 -74.4 419.2 C -31.5 415.9 11.1 403.9 54 402.4 C 96.8 400.9 139.8 409.9 182.6 419.1 C 225.5 428.2 268.1 437.6 311 439.6 C 353.8 441.6 396.8 436.2 439.6 427.7 C 482.5 419.2 525.1 407.6 568 406.9 C 610.8 406.2 653.8 416.6 675.3 421.7 L 696.8 426.9 L 696.8 541.9 L 675.3 541.9 C 653.8 541.9 610.8 541.9 568 541.9 C 525.1 541.9 482.5 541.9 439.6 541.9 C 396.8 541.9 353.8 541.9 311 541.9 C 268.1 541.9 225.5 541.9 182.6 541.9 C 139.8 541.9 96.8 541.9 54 541.9 C 11.1 541.9 -31.5 541.9 -74.4 541.9 C -117.2 541.9 -160.2 541.9 -181.7 541.9 L -203.2 541.9 Z"
            fill="#d8dce5"></path>
        <path transform="matrix(1.9,0,0,3.3,-257.2,-923.5)"
            d="M -204.8 484 L -183.3 482.5 C -161.8 481 -118.8 478 -76 478.5 C -33.1 479 9.5 483 52.4 483.2 C 95.2 483.3 138.2 479.7 181 479.8 C 223.9 480 266.5 484 309.4 484.8 C 352.2 485.7 395.2 483.3 438 485.3 C 480.9 487.3 523.5 493.7 566.4 495.3 C 609.2 497 652.2 494 673.7 492.5 L 695.2 491 L 695.2 578 L 673.7 578 C 652.2 578 609.2 578 566.4 578 C 523.5 578 480.9 578 438 578 C 395.2 578 352.2 578 309.4 578 C 266.5 578 223.9 578 181 578 C 138.2 578 95.2 578 52.4 578 C 9.5 578 -33.1 578 -76 578 C -118.8 578 -161.8 578 -183.3 578 L -204.8 578 Z"
            fill="#cbd1df"></path>
        <path transform="matrix(1.9,0,0,3.3,-257.2,-994.5)"
            d="M -204.3 541.2 L -182.8 542.7 C -161.3 544.2 -118.3 547.2 -75.5 544 C -32.6 540.9 10 531.5 52.9 530.5 C 95.7 529.5 138.7 536.9 181.5 538.9 C 224.4 540.9 267 537.5 309.9 535.2 C 352.7 532.9 395.7 531.5 438.5 531.7 C 481.4 531.9 524 533.5 566.9 536.5 C 609.7 539.5 652.7 543.9 674.2 546 L 695.7 548.2 L 695.7 579.2 L 674.2 579.2 C 652.7 579.2 609.7 579.2 566.9 579.2 C 524 579.2 481.4 579.2 438.5 579.2 C 395.7 579.2 352.7 579.2 309.9 579.2 C 267 579.2 224.4 579.2 181.5 579.2 C 138.7 579.2 95.7 579.2 52.9 579.2 C 10 579.2 -32.6 579.2 -75.5 579.2 C -118.3 579.2 -161.3 579.2 -182.8 579.2 L -204.3 579.2 Z"
            fill="#bfc7d9"></path>
    </g>


    <g transform="matrix(0.1,0,0,-0.1,0,512)" fill="rgba(0, 0, 0, 0.4)">
        <path transform="matrix(0.2,0,0,0.2,3425.3,-1063.1)" d="M 12122.7 -2643 c -332 -45 -644 -256 -770 -520 c -54 -112 -79 -218 -86 -360 c -9 -184 31 -340 137 -543 c 80 -154 202 -281 342 -357 c 66 -36 78 -29 78 40 c 0 30 4 55 10 55 c 5 0 103 -53 217 -118 c 453 -258 735 -407 1413 -748 c 492 -247 517 -261 572 -317 c 32 -34 61 -56 68 -52 c 6 4 39 -12 74 -34 c 34 -23 68 -41 74 -41 c 7 0 20 16 29 35 c 20 42 43 45 84 10 c 17 -13 61 -34 99 -45 c 45 -13 103 -43 167 -85 c 53 -36 107 -65 120 -65 c 28 0 39 -20 48 -95 c 9 -73 31 -132 55 -145 c 13 -7 20 -26 24 -62 c 3 -29 8 -71 11 -93 c 4 -30 1 -48 -14 -72 l -21 -33 l -127 0 c -200 0 -415 -55 -488 -125 c -51 -49 -121 -281 -150 -496 c -6 -45 -7 -47 -64 -73 c -32 -14 -82 -31 -111 -36 c -47 -9 -57 -8 -89 11 c -48 28 -125 40 -149 23 c -25 -18 -119 12 -196 61 c -75 48 -83 50 -95 26 c -21 -37 9 -69 203 -215 c 197 -148 281 -198 352 -210 c 46 -8 124 8 124 25 c 0 6 11 24 25 41 c 14 16 25 42 25 56 c 0 15 10 45 23 67 c 21 37 30 43 116 72 c 115 39 155 65 246 159 c 57 60 77 74 101 74 c 17 0 39 7 50 15 c 26 20 323 114 397 126 c 136 22 228 99 252 209 c 4 19 16 47 26 61 c 10 14 30 58 45 97 c 21 58 31 72 54 81 c 39 13 53 44 45 97 c -5 33 0 61 19 116 c 34 101 45 284 22 381 c -20 84 -48 140 -97 194 c -44 48 -47 64 -20 101 c 27 39 62 195 51 232 c -12 41 -83 107 -128 120 c -20 5 -55 10 -77 10 c -34 0 -47 -6 -78 -38 c -21 -21 -43 -56 -48 -78 c -6 -21 -20 -51 -30 -66 c -21 -29 -24 -54 -8 -64 c 10 -6 6 -70 -7 -116 c -3 -11 7 -27 28 -45 c 119 -102 117 -110 -53 -170 c -122 -43 -126 -44 -216 -37 c -78 5 -99 10 -134 33 c -70 47 -218 190 -245 237 c -25 42 -26 48 -14 85 c 13 38 12 43 -21 105 c -31 59 -92 124 -117 124 c -10 0 -168 202 -324 415 c -285 390 -871 1253 -873 1285 c -3 40 -78 180 -144 267 c -80 106 -231 249 -325 308 c -88 55 -185 91 -282 105 c -84 12 -104 11 -225 -5 z m 495 -527 c 8 -13 69 -162 134 -333 c 66 -170 157 -401 202 -513 c 46 -111 80 -205 77 -209 c -11 -10 -207 175 -575 543 c -195 195 -351 358 -347 363 c 8 14 159 113 220 145 c 45 24 60 26 162 26 c 106 0 113 -1 127 -22 z m 206 -25 c 127 -36 214 -86 259 -147 c 20 -28 142 -206 271 -396 c 365 -539 604 -876 803 -1133 c 71 -92 98 -134 94 -148 c -4 -13 2 -25 17 -34 c 12 -8 28 -30 35 -50 c 8 -23 19 -35 31 -35 c 23 0 63 -53 58 -78 c -2 -13 -11 -16 -36 -14 c -24 3 -34 -1 -39 -15 c -27 -78 -32 -84 -52 -71 c -11 6 -26 23 -33 37 c -24 45 -64 80 -85 75 c -28 -8 -348 292 -356 334 c -4 20 -14 33 -29 37 c -30 10 -188 143 -188 159 c 0 7 -11 23 -25 36 c -18 17 -25 34 -25 62 c 0 31 -4 38 -19 38 c -12 0 -23 -11 -30 -30 c -5 -16 -13 -30 -16 -30 c -4 0 -93 74 -199 164 l -192 164 l -41 103 c -63 159 -342 876 -369 947 l -25 64 l 53 -7 c 29 -4 91 -18 138 -32 z m -369 -506 c 364 -364 526 -515 822 -766 c 220 -187 205 -192 -228 -67 c -143 41 -415 124 -605 184 c -190 61 -411 131 -491 156 l -146 46 l -6 38 c -3 20 -9 121 -13 224 l -7 186 l 28 49 c 16 26 47 73 71 103 c 44 58 192 210 205 210 c 4 0 171 -164 370 -363 z m -94 -637 c 296 -94 655 -202 798 -241 c 143 -39 266 -72 273 -75 c 9 -3 11 -11 6 -26 c -6 -21 -5 -22 11 -8 c 16 13 20 12 40 -14 c 15 -19 29 -27 39 -23 c 20 8 148 -101 183 -156 c 20 -33 28 -38 49 -33 c 21 6 42 -10 145 -106 c 67 -62 143 -133 170 -156 c 27 -24 48 -49 47 -56 c -3 -13 14 -37 51 -70 c 13 -11 45 -41 72 -65 l 49 -43 l -20 -26 c -14 -17 -20 -40 -20 -72 c 0 -64 -16 -76 -61 -46 c -19 13 -44 35 -56 50 c -13 14 -30 26 -38 26 c -8 0 -20 8 -26 18 c -8 13 -20 17 -40 14 c -23 -3 -138 50 -521 243 c -515 259 -781 396 -1058 547 c -219 120 -619 348 -624 357 c -8 12 -19 131 -13 131 c 4 0 248 -77 544 -170 z m 1153 -242 c 0 -13 -4 -29 -9 -37 c -13 -20 -24 4 -17 35 c 8 30 26 32 26 2 z m 888 -862 c 32 -17 108 -93 100 -101 c -6 -7 -138 94 -138 106 c 0 12 7 11 38 -5 z m 577 -366 c 9 -14 -21 -60 -38 -60 c -8 0 -24 12 -38 26 c -13 14 -33 30 -44 34 c -14 6 2 9 47 9 c 37 1 70 -4 73 -9 z m -66 -84 c -9 -9 -50 25 -43 36 c 4 6 14 2 27 -11 c 12 -11 19 -23 16 -25 z m -46 -1 c 34 -29 37 -36 27 -54 c -6 -12 -8 -26 -5 -32 c 10 -16 -3 -39 -18 -33 c -8 3 -20 17 -27 32 c -14 31 -30 122 -21 122 c 3 -1 23 -16 44 -35 z m 577 -305 c -6 -11 -15 -20 -20 -20 c -12 0 -12 0 1 40 c 10 27 13 30 21 16 c 5 -10 5 -23 -2 -36 z m -1030 -422 c 0 -7 -11 -26 -25 -43 l -24 -30 l -1 27 c 0 14 3 33 6 42 c 7 19 44 22 44 4 z m -420 -525 c 0 -12 -33 -43 -46 -43 c -22 0 -28 23 -9 37 c 20 14 55 18 55 6 z" />
    </g>
</svg>