<svg id="visual" viewBox="0 0 900 600" width="900" height="600" xmlns="http://www.w3.org/2000/svg"
    xmlns:xlink="http://www.w3.org/1999/xlink" version="1.1">
    <path
        d="M -767 844.4 L -729.5 844.8 C -691.8 845.4 -616.8 846.3 -542 823.3 C -467.2 800.2 -392.6 753.1 -317.9 750.1 C -243.1 747.2 -168.1 788.4 -93.3 797.7 C -18.5 807.1 56.1 784.5 130.9 759.7 C 205.7 735 280.7 707.9 355.5 705.2 C 430.3 702.6 504.9 724.1 579.6 708.5 C 654.4 692.7 729.4 639.7 804.2 612.5 C 879 585.2 953.6 583.8 990.7 583 L 1028 582.3 L 1028 117 L 990.7 117 C 953.6 117 879 117 804.2 117 C 729.4 117 654.4 117 579.6 117 C 504.9 117 430.3 117 355.5 117 C 280.7 117 205.7 117 130.9 117 C 56.1 117 -18.5 117 -93.3 117 C -168.1 117 -243.1 117 -317.9 117 C -392.6 117 -467.2 117 -542 117 C -616.8 117 -691.8 117 -729.5 117 L -767 117 Z"
        fill="#f2f2f2"></path>
    <path
        d="M -375 369.8 L -345.4 380.1 C -315.7 390.3 -256.5 410.9 -197.5 415.4 C -138.5 420 -79.7 408.6 -20.7 408.4 C 38.3 408.2 97.5 419.2 156.5 418.6 C 215.5 418.1 274.3 406 333.3 391.7 C 392.3 377.4 451.5 361 510.5 340.4 C 569.5 319.6 628.3 294.5 687.3 280.6 C 746.3 266.8 805.5 264 864.5 287.3 C 923.5 310.5 982.3 359.5 1011.6 384.1 L 1041 408.6 L 1041 -33 L 1011.6 -33 C 982.3 -33 923.5 -33 864.5 -33 C 805.5 -33 746.3 -33 687.3 -33 C 628.3 -33 569.5 -33 510.5 -33 C 451.5 -33 392.3 -33 333.3 -33 C 274.3 -33 215.5 -33 156.5 -33 C 97.5 -33 38.3 -33 -20.7 -33 C -79.7 -33 -138.5 -33 -197.5 -33 C -256.5 -33 -315.7 -33 -345.4 -33 L -375 -33 Z"
        fill="#e8e9ed"></path>
    <path
        d="M 0 329 L 18.8 325.3 C 37.7 321.7 75.3 314.3 112.8 299.3 C 150.3 284.3 187.7 261.7 225.2 261.7 C 262.7 261.7 300.3 284.3 337.8 289.3 C 375.3 294.3 412.7 281.7 450.2 266.3 C 487.7 251 525.3 233 562.8 223.3 C 600.3 213.7 637.7 212.3 675.2 218.2 C 712.7 224 750.3 237 787.8 244.8 C 825.3 252.7 862.7 255.3 881.3 256.7 L 900 258 L 900 0 L 881.3 0 C 862.7 0 825.3 0 787.8 0 C 750.3 0 712.7 0 675.2 0 C 637.7 0 600.3 0 562.8 0 C 525.3 0 487.7 0 450.2 0 C 412.7 0 375.3 0 337.8 0 C 300.3 0 262.7 0 225.2 0 C 187.7 0 150.3 0 112.8 0 C 75.3 0 37.7 0 18.8 0 L 0 0 Z"
        fill="#dde0e8"></path>
    <path
        d="M 0 213 L 18.8 205.5 C 37.7 198 75.3 183 112.8 177.7 C 150.3 172.3 187.7 176.7 225.2 181.8 C 262.7 187 300.3 193 337.8 190 C 375.3 187 412.7 175 450.2 182.8 C 487.7 190.7 525.3 218.3 562.8 220.8 C 600.3 223.3 637.7 200.7 675.2 204.3 C 712.7 208 750.3 238 787.8 238 C 825.3 238 862.7 208 881.3 193 L 900 178 L 900 0 L 881.3 0 C 862.7 0 825.3 0 787.8 0 C 750.3 0 712.7 0 675.2 0 C 637.7 0 600.3 0 562.8 0 C 525.3 0 487.7 0 450.2 0 C 412.7 0 375.3 0 337.8 0 C 300.3 0 262.7 0 225.2 0 C 187.7 0 150.3 0 112.8 0 C 75.3 0 37.7 0 18.8 0 L 0 0 Z"
        fill="#d3d8e3"></path>
    <path
        d="M 0 152 L 18.8 158 C 37.7 164 75.3 176 112.8 167.2 C 150.3 158.3 187.7 128.7 225.2 114.2 C 262.7 99.7 300.3 100.3 337.8 101.5 C 375.3 102.7 412.7 104.3 450.2 111.2 C 487.7 118 525.3 130 562.8 146 C 600.3 162 637.7 182 675.2 175.3 C 712.7 168.7 750.3 135.3 787.8 125.3 C 825.3 115.3 862.7 128.7 881.3 135.3 L 900 142 L 900 0 L 881.3 0 C 862.7 0 825.3 0 787.8 0 C 750.3 0 712.7 0 675.2 0 C 637.7 0 600.3 0 562.8 0 C 525.3 0 487.7 0 450.2 0 C 412.7 0 375.3 0 337.8 0 C 300.3 0 262.7 0 225.2 0 C 187.7 0 150.3 0 112.8 0 C 75.3 0 37.7 0 18.8 0 L 0 0 Z"
        fill="#c9cfde"></path>
    <path
        d="M 0 64 L 18.8 70.2 C 37.7 76.3 75.3 88.7 112.8 87.3 C 150.3 86 187.7 71 225.2 72.7 C 262.7 74.3 300.3 92.7 337.8 99.8 C 375.3 107 412.7 103 450.2 103.5 C 487.7 104 525.3 109 562.8 113 C 600.3 117 637.7 120 675.2 121.2 C 712.7 122.3 750.3 121.7 787.8 112 C 825.3 102.3 862.7 83.7 881.3 74.3 L 900 65 L 900 0 L 881.3 0 C 862.7 0 825.3 0 787.8 0 C 750.3 0 712.7 0 675.2 0 C 637.7 0 600.3 0 562.8 0 C 525.3 0 487.7 0 450.2 0 C 412.7 0 375.3 0 337.8 0 C 300.3 0 262.7 0 225.2 0 C 187.7 0 150.3 0 112.8 0 C 75.3 0 37.7 0 18.8 0 L 0 0 Z"
        fill="#bfc7d9"></path>
</svg>