<svg id="visual" viewBox="0 0 900 600" width="900" height="600" xmlns="http://www.w3.org/2000/svg"
    xmlns:xlink="http://www.w3.org/1999/xlink" version="1.1">
    <path
        d="M -1224 263 L -1147.1 263.8 C -1070.3 264.7 -916.5 266.3 -762.8 264.8 C -609.1 263.3 -455.3 258.7 -301.6 253.8 C -147.9 249 5.9 244 159.6 248.3 C 313.3 252.7 467.1 266.3 620.8 265.2 C 774.5 264 928.3 248 1005.1 240 L 1082 232 L 1082 56 L 1005.1 56 C 928.3 56 774.5 56 620.8 56 C 467.1 56 313.3 56 159.6 56 C 5.9 56 -147.9 56 -301.6 56 C -455.3 56 -609.1 56 -762.8 56 C -916.5 56 -1070.3 56 -1147.1 56 L -1224 56 Z"
        fill="#4f4f4f"></path>
    <path
        d="M -870 204 L -798.9 202.3 C -727.8 200.7 -585.6 197.3 -443.4 201 C -301.2 204.7 -159 215.3 -16.8 218.3 C 125.4 221.3 267.6 216.7 409.8 213.2 C 552 209.7 694.2 207.3 836.4 203.5 C 978.6 199.7 1120.8 194.3 1191.9 191.7 L 1263 189 L 1263 50 L 1191.9 50 C 1120.8 50 978.6 50 836.4 50 C 694.2 50 552 50 409.8 50 C 267.6 50 125.4 50 -16.8 50 C -159 50 -301.2 50 -443.4 50 C -585.6 50 -727.8 50 -798.9 50 L -870 50 Z"
        fill="#828282"></path>
    <path
        d="M -621 157.3 L -560.9 155.4 C -500.8 153.5 -380.6 149.7 -260.4 148.4 C -140.2 147.2 -20 148.4 100.2 150.6 C 220.4 152.6 340.6 155.7 460.8 158.2 C 581 160.7 701.2 162.7 821.4 168.7 C 941.6 174.6 1061.8 184.3 1121.9 189.2 L 1182 194 L 1182 32 L 1121.9 32 C 1061.8 32 941.6 32 821.4 32 C 701.2 32 581 32 460.8 32 C 340.6 32 220.4 32 100.2 32 C -20 32 -140.2 32 -260.4 32 C -380.6 32 -500.8 32 -560.9 32 L -621 32 Z"
        fill="#b8b8b8"></path>
    <path
        d="M -337 71.9 L -252.4 71.9 C -167.7 71.9 1.5 71.9 170.8 77.4 C 340.1 82.9 509.3 94 678.6 87.8 C 847.9 81.4 1017.1 57.9 1186.4 44.7 C 1355.7 31.4 1524.9 28.3 1694.2 32.7 C 1863.5 37.1 2032.7 49.1 2117.4 54.8 L 2202 60.8 L 2202 -52 L 2117.4 -52 C 2032.7 -52 1863.5 -52 1694.2 -52 C 1524.9 -52 1355.7 -52 1186.4 -52 C 1017.1 -52 847.9 -52 678.6 -52 C 509.3 -52 340.1 -52 170.8 -52 C 1.5 -52 -167.7 -52 -252.4 -52 L -337 -52 Z"
        fill="#f2f2f2"></path>
</svg>