<svg id="visual" viewBox="0 0 900 600" width="900" height="600" xmlns="http://www.w3.org/2000/svg"
    xmlns:xlink="http://www.w3.org/1999/xlink" version="1.1">
    <path transform="matrix(-1.4,0,0,-1,915.5,1107.4)"
        d="M 17.1 665.9 L 33.8 664.7 C 50.4 663.6 83.8 661.2 117.1 656.4 C 150.4 651.6 183.8 644.2 217.1 646.2 C 250.4 648.2 283.8 659.6 317.1 661.1 C 350.4 662.6 383.8 654.2 417.1 646.7 C 450.4 639.2 483.8 632.6 517.1 636.9 C 550.4 641.2 583.8 656.6 617.1 657.4 C 650.4 658.2 683.8 644.6 717.1 637.4 C 750.4 630.2 783.8 629.6 817.1 634.6 C 850.4 639.6 883.8 650.2 900.4 655.6 L 917.1 660.9 L 917.1 451.9 L 900.4 451.9 C 883.8 451.9 850.4 451.9 817.1 451.9 C 783.8 451.9 750.4 451.9 717.1 451.9 C 683.8 451.9 650.4 451.9 617.1 451.9 C 583.8 451.9 550.4 451.9 517.1 451.9 C 483.8 451.9 450.4 451.9 417.1 451.9 C 383.8 451.9 350.4 451.9 317.1 451.9 C 283.8 451.9 250.4 451.9 217.1 451.9 C 183.8 451.9 150.4 451.9 117.1 451.9 C 83.8 451.9 50.4 451.9 33.8 451.9 L 17.1 451.9 Z"
        fill="#c9cfde"></path>
    <path transform="matrix(-1.4,0,0,-1,916,1107)"
        d="M 17.7 611.6 L 34.4 613.4 C 51 615.3 84.4 618.9 117.7 618.6 C 151 618.3 184.4 613.9 217.7 609.9 C 251 605.9 284.4 602.3 317.7 601.9 C 351 601.6 384.4 604.6 417.7 605.9 C 451 607.3 484.4 606.9 517.7 605.4 C 551 603.9 584.4 601.3 617.7 605.8 C 651 610.3 684.4 621.9 717.7 626.1 C 751 630.3 784.4 626.9 817.7 624.9 C 851 622.9 884.4 622.3 901 621.9 L 917.7 621.6 L 917.7 462.6 L 901 462.6 C 884.4 462.6 851 462.6 817.7 462.6 C 784.4 462.6 751 462.6 717.7 462.6 C 684.4 462.6 651 462.6 617.7 462.6 C 584.4 462.6 551 462.6 517.7 462.6 C 484.4 462.6 451 462.6 417.7 462.6 C 384.4 462.6 351 462.6 317.7 462.6 C 284.4 462.6 251 462.6 217.7 462.6 C 184.4 462.6 151 462.6 117.7 462.6 C 84.4 462.6 51 462.6 34.4 462.6 L 17.7 462.6 Z"
        fill="#d3d8e3"></path>
    <path transform="matrix(-1.4,0,0,-1,916,1106.1)"
        d="M 17.7 577.7 L 34.4 578.5 C 51 579.4 84.4 581 117.7 578.7 C 151 576.4 184.4 570 217.7 565.7 C 251 561.4 284.4 559 317.7 562 C 351 565 384.4 573.4 417.7 575 C 451 576.7 484.4 571.7 517.7 571.2 C 551 570.7 584.4 574.7 617.7 571.5 C 651 568.4 684.4 558 717.7 556.4 C 751 554.7 784.4 561.7 817.7 564.5 C 851 567.4 884.4 566 901 565.4 L 917.7 564.7 L 917.7 443.7 L 901 443.7 C 884.4 443.7 851 443.7 817.7 443.7 C 784.4 443.7 751 443.7 717.7 443.7 C 684.4 443.7 651 443.7 617.7 443.7 C 584.4 443.7 551 443.7 517.7 443.7 C 484.4 443.7 451 443.7 417.7 443.7 C 384.4 443.7 351 443.7 317.7 443.7 C 284.4 443.7 251 443.7 217.7 443.7 C 184.4 443.7 151 443.7 117.7 443.7 C 84.4 443.7 51 443.7 34.4 443.7 L 17.7 443.7 Z"
        fill="#dde0e8"></path>
    <path transform="matrix(-1.4,0,0,-1,916,1106.3)"
        d="M 17.7 567.9 L 34.4 566.2 C 51 564.6 84.4 561.2 117.7 555.2 C 151 549.2 184.4 540.6 217.7 538.2 C 251 535.9 284.4 539.9 317.7 540.9 C 351 541.9 384.4 539.9 417.7 539.7 C 451 539.6 484.4 541.2 517.7 540.6 C 551 539.9 584.4 536.9 617.7 535.4 C 651 533.9 684.4 533.9 717.7 534.9 C 751 535.9 784.4 537.9 817.7 538.7 C 851 539.6 884.4 539.2 901 539.1 L 917.7 538.9 L 917.7 469.9 L 901 469.9 C 884.4 469.9 851 469.9 817.7 469.9 C 784.4 469.9 751 469.9 717.7 469.9 C 684.4 469.9 651 469.9 617.7 469.9 C 584.4 469.9 551 469.9 517.7 469.9 C 484.4 469.9 451 469.9 417.7 469.9 C 384.4 469.9 351 469.9 317.7 469.9 C 284.4 469.9 251 469.9 217.7 469.9 C 184.4 469.9 151 469.9 117.7 469.9 C 84.4 469.9 51 469.9 34.4 469.9 L 17.7 469.9 Z"
        fill="#e8e9ed"></path>
    <path transform="matrix(-1.4,0,0,-1,919.7,1105.6)"
        d="M -1051.5 512 L -1018.2 528.8 C -985.1 545.3 -918.2 578.4 -851.5 607 C -785 636.2 -718.1 660 -651.6 669.3 C -584.9 678 -518.2 671.2 -451.6 654.8 C -385 638.3 -318.2 611.6 -251.5 579.7 C -185 547.2 -118.2 509.9 -51.6 503.5 C 15 496.7 81.7 520.7 148.4 521.9 C 214.9 523.2 281.7 500.8 348.4 500 C 415 498.7 481.8 518.8 548.3 525.2 C 615 532.1 681.7 525.2 714.9 521.9 L 748.3 518.8 L 748.3 293 L 714.9 293 C 681.7 293 615 293 548.3 293 C 481.8 293 415 293 348.4 293 C 281.7 293 214.9 293 148.4 293 C 81.7 293 15 293 -51.6 293 C -118.2 293 -185 293 -251.5 293 C -318.2 293 -385 293 -451.6 293 C -518.2 293 -584.9 293 -651.6 293 C -718.1 293 -785 293 -851.5 293 C -918.2 293 -985.1 293 -1018.2 293 L -1051.5 293 Z"
        fill="#f2f2f2"></path>
</svg>