<svg id="visual" viewBox="0 0 900 600" width="900" height="600" xmlns="http://www.w3.org/2000/svg"
    xmlns:xlink="http://www.w3.org/1999/xlink" version="1.1">
    <path transform="matrix(1.4,0,0,1,18.6,0)"
        d="M -125.4 371 L -108.7 369.8 C -92.1 368.7 -58.7 366.3 -25.4 361.5 C 7.9 356.7 41.3 349.3 74.6 351.3 C 107.9 353.3 141.3 364.7 174.6 366.2 C 207.9 367.7 241.3 359.3 274.6 351.8 C 307.9 344.3 341.3 337.7 374.6 342 C 407.9 346.3 441.3 361.7 474.6 362.5 C 507.9 363.3 541.3 349.7 574.6 342.5 C 607.9 335.3 641.3 334.7 674.6 339.7 C 707.9 344.7 741.3 355.3 757.9 360.7 L 774.6 366 L 774.6 157 L 757.9 157 C 741.3 157 707.9 157 674.6 157 C 641.3 157 607.9 157 574.6 157 C 541.3 157 507.9 157 474.6 157 C 441.3 157 407.9 157 374.6 157 C 341.3 157 307.9 157 274.6 157 C 241.3 157 207.9 157 174.6 157 C 141.3 157 107.9 157 74.6 157 C 41.3 157 7.9 157 -25.4 157 C -58.7 157 -92.1 157 -108.7 157 L -125.4 157 Z"
        fill="#c9cfde"></path>
    <path transform="matrix(1.4,0,0,1,18.1,0)"
        d="M -124.8 317 L -108.1 318.8 C -91.5 320.7 -58.1 324.3 -24.8 324 C 8.5 323.7 41.9 319.3 75.2 315.3 C 108.5 311.3 141.9 307.7 175.2 307.3 C 208.5 307 241.9 310 275.2 311.3 C 308.5 312.7 341.9 312.3 375.2 310.8 C 408.5 309.3 441.9 306.7 475.2 311.2 C 508.5 315.7 541.9 327.3 575.2 331.5 C 608.5 335.7 641.9 332.3 675.2 330.3 C 708.5 328.3 741.9 327.7 758.5 327.3 L 775.2 327 L 775.2 168 L 758.5 168 C 741.9 168 708.5 168 675.2 168 C 641.9 168 608.5 168 575.2 168 C 541.9 168 508.5 168 475.2 168 C 441.9 168 408.5 168 375.2 168 C 341.9 168 308.5 168 275.2 168 C 241.9 168 208.5 168 175.2 168 C 141.9 168 108.5 168 75.2 168 C 41.9 168 8.5 168 -24.8 168 C -58.1 168 -91.5 168 -108.1 168 L -124.8 168 Z"
        fill="#d3d8e3"></path>
    <path transform="matrix(1.4,0,0,1,18.1,0)"
        d="M -124.8 285 L -108.1 285.8 C -91.5 286.7 -58.1 288.3 -24.8 286 C 8.5 283.7 41.9 277.3 75.2 273 C 108.5 268.7 141.9 266.3 175.2 269.3 C 208.5 272.3 241.9 280.7 275.2 282.3 C 308.5 284 341.9 279 375.2 278.5 C 408.5 278 441.9 282 475.2 278.8 C 508.5 275.7 541.9 265.3 575.2 263.7 C 608.5 262 641.9 269 675.2 271.8 C 708.5 274.7 741.9 273.3 758.5 272.7 L 775.2 272 L 775.2 151 L 758.5 151 C 741.9 151 708.5 151 675.2 151 C 641.9 151 608.5 151 575.2 151 C 541.9 151 508.5 151 475.2 151 C 441.9 151 408.5 151 375.2 151 C 341.9 151 308.5 151 275.2 151 C 241.9 151 208.5 151 175.2 151 C 141.9 151 108.5 151 75.2 151 C 41.9 151 8.5 151 -24.8 151 C -58.1 151 -91.5 151 -108.1 151 L -124.8 151 Z"
        fill="#dde0e8"></path>
    <path transform="matrix(1.4,0,0,1,18.1,0)"
        d="M -124.8 275 L -108.1 273.3 C -91.5 271.7 -58.1 268.3 -24.8 262.3 C 8.5 256.3 41.9 247.7 75.2 245.3 C 108.5 243 141.9 247 175.2 248 C 208.5 249 241.9 247 275.2 246.8 C 308.5 246.7 341.9 248.3 375.2 247.7 C 408.5 247 441.9 244 475.2 242.5 C 508.5 241 541.9 241 575.2 242 C 608.5 243 641.9 245 675.2 245.8 C 708.5 246.7 741.9 246.3 758.5 246.2 L 775.2 246 L 775.2 177 L 758.5 177 C 741.9 177 708.5 177 675.2 177 C 641.9 177 608.5 177 575.2 177 C 541.9 177 508.5 177 475.2 177 C 441.9 177 408.5 177 375.2 177 C 341.9 177 308.5 177 275.2 177 C 241.9 177 208.5 177 175.2 177 C 141.9 177 108.5 177 75.2 177 C 41.9 177 8.5 177 -24.8 177 C -58.1 177 -91.5 177 -108.1 177 L -124.8 177 Z"
        fill="#e8e9ed"></path>
    <path transform="matrix(1.4,0,0,1,18.1,0)"
        d="M -589.3 224 L -566 240.8 C -542.9 257.3 -496.1 290.4 -449.5 319 C -403 348.2 -356.3 372 -309.8 381.3 C -263.2 390 -216.6 383.2 -170 366.8 C -123.5 350.3 -76.8 323.6 -30.2 291.7 C 16.3 259.2 63 221.9 109.5 215.5 C 156.1 208.7 202.7 232.7 249.3 233.9 C 295.8 235.2 342.5 212.8 389.1 212 C 435.6 210.7 482.3 230.8 528.8 237.2 C 575.4 244.1 622 237.2 645.2 233.9 L 668.6 230.8 L 668.6 5 L 645.2 5 C 622 5 575.4 5 528.8 5 C 482.3 5 435.6 5 389.1 5 C 342.5 5 295.8 5 249.3 5 C 202.7 5 156.1 5 109.5 5 C 63 5 16.3 5 -30.2 5 C -76.8 5 -123.5 5 -170 5 C -216.6 5 -263.2 5 -309.8 5 C -356.3 5 -403 5 -449.5 5 C -496.1 5 -542.9 5 -566 5 L -589.3 5 Z"
        fill="#f2f2f2"></path>
</svg>