<svg id="visual" viewBox="0 0 900 600" width="900" height="600" xmlns="http://www.w3.org/2000/svg"
    xmlns:xlink="http://www.w3.org/1999/xlink" version="1.1">
    <path transform="matrix(-2.4,0,0,-1,1070,1107.4)"
        d="M 10.1 620.9 L 26.8 619.7 C 43.4 618.6 76.8 616.2 110.1 611.4 C 143.4 606.6 176.8 599.2 210.1 601.2 C 243.4 603.2 276.8 614.6 310.1 616.1 C 343.4 617.6 376.8 609.2 410.1 601.7 C 443.4 594.2 476.8 587.6 510.1 591.9 C 543.4 596.2 576.8 611.6 610.1 612.4 C 643.4 613.2 676.8 599.6 710.1 592.4 C 743.4 585.2 776.8 584.6 810.1 589.6 C 843.4 594.6 876.8 605.2 893.4 610.6 L 910.1 615.9 L 910.1 406.9 L 893.4 406.9 C 876.8 406.9 843.4 406.9 810.1 406.9 C 776.8 406.9 743.4 406.9 710.1 406.9 C 676.8 406.9 643.4 406.9 610.1 406.9 C 576.8 406.9 543.4 406.9 510.1 406.9 C 476.8 406.9 443.4 406.9 410.1 406.9 C 376.8 406.9 343.4 406.9 310.1 406.9 C 276.8 406.9 243.4 406.9 210.1 406.9 C 176.8 406.9 143.4 406.9 110.1 406.9 C 76.8 406.9 43.4 406.9 26.8 406.9 L 10.1 406.9 Z"
        fill="#c9cfde"></path>
    <path transform="matrix(-2.4,0,0,-1,1070.5,1107)"
        d="M 9.8 590.6 L 26.5 592.4 C 43.1 594.3 76.5 597.9 109.8 597.6 C 143.1 597.3 176.5 592.9 209.8 588.9 C 243.1 584.9 276.5 581.3 309.8 580.9 C 343.1 580.6 376.5 583.6 409.8 584.9 C 443.1 586.3 476.5 585.9 509.8 584.4 C 543.1 582.9 576.5 580.3 609.8 584.8 C 643.1 589.3 676.5 600.9 709.8 605.1 C 743.1 609.3 776.5 605.9 809.8 603.9 C 843.1 601.9 876.5 601.3 893.1 600.9 L 909.8 600.6 L 909.8 441.6 L 893.1 441.6 C 876.5 441.6 843.1 441.6 809.8 441.6 C 776.5 441.6 743.1 441.6 709.8 441.6 C 676.5 441.6 643.1 441.6 609.8 441.6 C 576.5 441.6 543.1 441.6 509.8 441.6 C 476.5 441.6 443.1 441.6 409.8 441.6 C 376.5 441.6 343.1 441.6 309.8 441.6 C 276.5 441.6 243.1 441.6 209.8 441.6 C 176.5 441.6 143.1 441.6 109.8 441.6 C 76.5 441.6 43.1 441.6 26.5 441.6 L 9.8 441.6 Z"
        fill="#d3d8e3"></path>
    <path transform="matrix(-2.4,0,0,-1,1070.5,1106.1)"
        d="M 9.3 557.7 L 26 558.5 C 42.6 559.4 76 561 109.3 558.7 C 142.6 556.4 176 550 209.3 545.7 C 242.6 541.4 276 539 309.3 542 C 342.6 545 376 553.4 409.3 555 C 442.6 556.7 476 551.7 509.3 551.2 C 542.6 550.7 576 554.7 609.3 551.5 C 642.6 548.4 676 538 709.3 536.4 C 742.6 534.7 776 541.7 809.3 544.5 C 842.6 547.4 876 546 892.6 545.4 L 909.3 544.7 L 909.3 423.7 L 892.6 423.7 C 876 423.7 842.6 423.7 809.3 423.7 C 776 423.7 742.6 423.7 709.3 423.7 C 676 423.7 642.6 423.7 609.3 423.7 C 576 423.7 542.6 423.7 509.3 423.7 C 476 423.7 442.6 423.7 409.3 423.7 C 376 423.7 342.6 423.7 309.3 423.7 C 276 423.7 242.6 423.7 209.3 423.7 C 176 423.7 142.6 423.7 109.3 423.7 C 76 423.7 42.6 423.7 26 423.7 L 9.3 423.7 Z"
        fill="#dde0e8"></path>
    <path transform="matrix(-2.4,0,0,-1,1070.5,1106.3)"
        d="M 9.8 540.9 L 26.5 539.2 C 43.1 537.6 76.5 534.2 109.8 528.2 C 143.1 522.2 176.5 513.6 209.8 511.2 C 243.1 508.9 276.5 512.9 309.8 513.9 C 343.1 514.9 376.5 512.9 409.8 512.7 C 443.1 512.6 476.5 514.2 509.8 513.6 C 543.1 512.9 576.5 509.9 609.8 508.4 C 643.1 506.9 676.5 506.9 709.8 507.9 C 743.1 508.9 776.5 510.9 809.8 511.7 C 843.1 512.6 876.5 512.2 893.1 512.1 L 909.8 511.9 L 909.8 442.9 L 893.1 442.9 C 876.5 442.9 843.1 442.9 809.8 442.9 C 776.5 442.9 743.1 442.9 709.8 442.9 C 676.5 442.9 643.1 442.9 609.8 442.9 C 576.5 442.9 543.1 442.9 509.8 442.9 C 476.5 442.9 443.1 442.9 409.8 442.9 C 376.5 442.9 343.1 442.9 309.8 442.9 C 276.5 442.9 243.1 442.9 209.8 442.9 C 176.5 442.9 143.1 442.9 109.8 442.9 C 76.5 442.9 43.1 442.9 26.5 442.9 L 9.8 442.9 Z"
        fill="#e8e9ed"></path>
    <path transform="matrix(-1.4,0,0,-1,919.7,1105.6)"
        d="M -1049.4 511 L -1016.1 527.8 C -983 544.3 -916.1 577.4 -849.4 606 C -782.9 635.2 -716 659 -649.5 668.3 C -582.8 677 -516.1 670.2 -449.5 653.8 C -382.9 637.3 -316.1 610.6 -249.4 578.7 C -182.9 546.2 -116.1 508.9 -49.5 502.5 C 17.1 495.7 83.8 519.7 150.5 520.9 C 217 522.2 283.8 499.8 350.5 499 C 417.1 497.7 483.9 517.8 550.4 524.2 C 617.1 531.1 683.8 524.2 717 520.9 L 750.4 517.8 L 750.4 292 L 717 292 C 683.8 292 617.1 292 550.4 292 C 483.9 292 417.1 292 350.5 292 C 283.8 292 217 292 150.5 292 C 83.8 292 17.1 292 -49.5 292 C -116.1 292 -182.9 292 -249.4 292 C -316.1 292 -382.9 292 -449.5 292 C -516.1 292 -582.8 292 -649.5 292 C -716 292 -782.9 292 -849.4 292 C -916.1 292 -983 292 -1016.1 292 L -1049.4 292 Z"
        fill="#f2f2f2"></path>
</svg>